<svg xmlns="http://www.w3.org/2000/svg" viewBox="0 0 64 64" width="64" height="64">
  <defs>
    <linearGradient id="bg" x1="0%" y1="0%" x2="100%" y2="100%">
      <stop offset="0%" stop-color="#6366f1"/>
      <stop offset="100%" stop-color="#06b6d4"/>
    </linearGradient>
  </defs>
  <rect width="64" height="64" rx="14" fill="url(#bg)"/>
  <!-- Octopus face -->
  <ellipse cx="32" cy="27" rx="17" ry="18" fill="#fff" opacity="0.95"/>
  <!-- Eyes -->
  <ellipse cx="26" cy="25" rx="4.5" ry="5.5" fill="#1e1b4b"/>
  <ellipse cx="38" cy="25" rx="4.5" ry="5.5" fill="#1e1b4b"/>
  <circle cx="28" cy="23" r="2" fill="#fff"/>
  <circle cx="40" cy="23" r="2" fill="#fff"/>
  <!-- Smile -->
  <path d="M28 33 Q32 37 36 33" fill="none" stroke="#6366f1" stroke-width="1.5" stroke-linecap="round"/>
  <!-- Blush -->
  <circle cx="21" cy="31" r="3" fill="#f472b6" opacity="0.35"/>
  <circle cx="43" cy="31" r="3" fill="#f472b6" opacity="0.35"/>
  <!-- Tentacles -->
  <g fill="none" stroke="#fff" stroke-width="3" stroke-linecap="round" opacity="0.8">
    <path d="M18 44 Q14 52 18 56"/>
    <path d="M25 46 Q23 54 27 57"/>
    <path d="M32 47 Q32 55 32 58"/>
    <path d="M39 46 Q41 54 37 57"/>
    <path d="M46 44 Q50 52 46 56"/>
  </g>
</svg>
