<svg xmlns="http://www.w3.org/2000/svg" width="1200" height="700" viewBox="0 0 1200 700">
  <defs>
    <!-- Card glow filters -->
    <filter id="glowIndigo" x="-20%" y="-20%" width="140%" height="140%">
      <feGaussianBlur stdDeviation="8" result="blur"/>
      <feFlood flood-color="#6366f1" flood-opacity="0.3"/>
      <feComposite in2="blur" operator="in"/>
      <feMerge><feMergeNode/><feMergeNode in="SourceGraphic"/></feMerge>
    </filter>
    <filter id="glowCyan" x="-20%" y="-20%" width="140%" height="140%">
      <feGaussianBlur stdDeviation="8" result="blur"/>
      <feFlood flood-color="#06b6d4" flood-opacity="0.3"/>
      <feComposite in2="blur" operator="in"/>
      <feMerge><feMergeNode/><feMergeNode in="SourceGraphic"/></feMerge>
    </filter>
    <filter id="glowPurple" x="-20%" y="-20%" width="140%" height="140%">
      <feGaussianBlur stdDeviation="8" result="blur"/>
      <feFlood flood-color="#a855f7" flood-opacity="0.3"/>
      <feComposite in2="blur" operator="in"/>
      <feMerge><feMergeNode/><feMergeNode in="SourceGraphic"/></feMerge>
    </filter>
    <filter id="glowEmerald" x="-20%" y="-20%" width="140%" height="140%">
      <feGaussianBlur stdDeviation="8" result="blur"/>
      <feFlood flood-color="#10b981" flood-opacity="0.3"/>
      <feComposite in2="blur" operator="in"/>
      <feMerge><feMergeNode/><feMergeNode in="SourceGraphic"/></feMerge>
    </filter>

    <!-- Card gradients -->
    <linearGradient id="gradIndigo" x1="0" y1="0" x2="1" y2="1">
      <stop offset="0%" stop-color="#6366f1" stop-opacity="0.2"/>
      <stop offset="100%" stop-color="#6366f1" stop-opacity="0.05"/>
    </linearGradient>
    <linearGradient id="gradCyan" x1="0" y1="0" x2="1" y2="1">
      <stop offset="0%" stop-color="#06b6d4" stop-opacity="0.2"/>
      <stop offset="100%" stop-color="#06b6d4" stop-opacity="0.05"/>
    </linearGradient>
    <linearGradient id="gradPurple" x1="0" y1="0" x2="1" y2="1">
      <stop offset="0%" stop-color="#a855f7" stop-opacity="0.2"/>
      <stop offset="100%" stop-color="#a855f7" stop-opacity="0.05"/>
    </linearGradient>
    <linearGradient id="gradEmerald" x1="0" y1="0" x2="1" y2="1">
      <stop offset="0%" stop-color="#10b981" stop-opacity="0.2"/>
      <stop offset="100%" stop-color="#10b981" stop-opacity="0.05"/>
    </linearGradient>

    <!-- Area chart gradient -->
    <linearGradient id="chartFill" x1="0" y1="0" x2="0" y2="1">
      <stop offset="0%" stop-color="#6366f1" stop-opacity="0.4"/>
      <stop offset="100%" stop-color="#6366f1" stop-opacity="0.02"/>
    </linearGradient>

    <!-- Donut chart gradients -->
    <linearGradient id="donutIndigo" x1="0" y1="0" x2="1" y2="1">
      <stop offset="0%" stop-color="#818cf8"/><stop offset="100%" stop-color="#6366f1"/>
    </linearGradient>
    <linearGradient id="donutCyan" x1="0" y1="0" x2="1" y2="1">
      <stop offset="0%" stop-color="#22d3ee"/><stop offset="100%" stop-color="#06b6d4"/>
    </linearGradient>
    <linearGradient id="donutPurple" x1="0" y1="0" x2="1" y2="1">
      <stop offset="0%" stop-color="#c084fc"/><stop offset="100%" stop-color="#a855f7"/>
    </linearGradient>
    <linearGradient id="donutEmerald" x1="0" y1="0" x2="1" y2="1">
      <stop offset="0%" stop-color="#34d399"/><stop offset="100%" stop-color="#10b981"/>
    </linearGradient>
  </defs>

  <!-- Background -->
  <rect width="1200" height="700" fill="#020617"/>

  <!-- Left Sidebar -->
  <rect x="0" y="0" width="60" height="700" fill="#0a0f1e"/>
  <line x1="60" y1="0" x2="60" y2="700" stroke="rgba(255,255,255,0.1)" stroke-width="1"/>
  <!-- Sidebar logo dot -->
  <circle cx="30" cy="28" r="10" fill="#6366f1"/>
  <text x="30" y="32" fill="white" font-family="Arial, sans-serif" font-size="10" font-weight="bold" text-anchor="middle">O</text>
  <!-- Nav dots -->
  <rect x="18" y="70" width="24" height="3" rx="1.5" fill="#6366f1"/>
  <rect x="18" y="90" width="24" height="3" rx="1.5" fill="rgba(255,255,255,0.3)"/>
  <rect x="18" y="110" width="24" height="3" rx="1.5" fill="rgba(255,255,255,0.3)"/>
  <rect x="18" y="130" width="24" height="3" rx="1.5" fill="rgba(255,255,255,0.3)"/>
  <rect x="18" y="150" width="24" height="3" rx="1.5" fill="rgba(255,255,255,0.3)"/>
  <!-- Nav dot indicators -->
  <circle cx="10" cy="71.5" r="2.5" fill="#6366f1"/>
  <circle cx="10" cy="91.5" r="2.5" fill="rgba(255,255,255,0.15)"/>
  <circle cx="10" cy="111.5" r="2.5" fill="rgba(255,255,255,0.15)"/>
  <circle cx="10" cy="131.5" r="2.5" fill="rgba(255,255,255,0.15)"/>
  <circle cx="10" cy="151.5" r="2.5" fill="rgba(255,255,255,0.15)"/>

  <!-- Top Bar -->
  <rect x="60" y="0" width="1140" height="50" fill="#0a0f1e"/>
  <line x1="60" y1="50" x2="1200" y2="50" stroke="rgba(255,255,255,0.1)" stroke-width="1"/>
  <text x="85" y="31" fill="white" font-family="Arial, sans-serif" font-size="16" font-weight="bold">Octopus Admin</text>
  <!-- Top bar right items -->
  <circle cx="1140" cy="25" r="14" fill="#1e293b"/>
  <text x="1140" y="30" fill="#94a3b8" font-family="Arial, sans-serif" font-size="11" text-anchor="middle">A</text>
  <circle cx="1100" cy="25" r="3" fill="#10b981"/>
  <rect x="1050" y="18" width="30" height="14" rx="4" fill="#1e293b"/>
  <text x="1065" y="28" fill="#94a3b8" font-family="Arial, sans-serif" font-size="8" text-anchor="middle">EN</text>

  <!-- === STAT CARDS === -->
  <!-- Card 1: Total Merchants -->
  <g filter="url(#glowIndigo)">
    <rect x="82" y="70" width="255" height="95" rx="12" fill="url(#gradIndigo)"/>
    <rect x="82" y="70" width="255" height="95" rx="12" fill="#0f172a" fill-opacity="0.7"/>
    <rect x="82" y="70" width="255" height="95" rx="12" fill="none" stroke="#6366f1" stroke-opacity="0.3" stroke-width="1"/>
    <!-- Accent top line -->
    <rect x="82" y="70" width="255" height="3" rx="1.5" fill="#6366f1" opacity="0.6"/>
    <text x="102" y="100" fill="#94a3b8" font-family="Arial, sans-serif" font-size="12">Total Merchants</text>
    <text x="102" y="138" fill="white" font-family="Arial, sans-serif" font-size="28" font-weight="bold">128</text>
    <!-- Mini sparkline -->
    <polyline points="270,130 280,120 290,125 300,110 310,115 320,100" fill="none" stroke="#6366f1" stroke-width="2" stroke-linecap="round"/>
  </g>

  <!-- Card 2: Total Payments -->
  <g filter="url(#glowCyan)">
    <rect x="355" y="70" width="255" height="95" rx="12" fill="url(#gradCyan)"/>
    <rect x="355" y="70" width="255" height="95" rx="12" fill="#0f172a" fill-opacity="0.7"/>
    <rect x="355" y="70" width="255" height="95" rx="12" fill="none" stroke="#06b6d4" stroke-opacity="0.3" stroke-width="1"/>
    <rect x="355" y="70" width="255" height="3" rx="1.5" fill="#06b6d4" opacity="0.6"/>
    <text x="375" y="100" fill="#94a3b8" font-family="Arial, sans-serif" font-size="12">Total Payments</text>
    <text x="375" y="138" fill="white" font-family="Arial, sans-serif" font-size="28" font-weight="bold">3,542</text>
    <polyline points="543,128 553,118 563,123 573,108 583,113 593,98" fill="none" stroke="#06b6d4" stroke-width="2" stroke-linecap="round"/>
  </g>

  <!-- Card 3: Total Payouts -->
  <g filter="url(#glowPurple)">
    <rect x="628" y="70" width="255" height="95" rx="12" fill="url(#gradPurple)"/>
    <rect x="628" y="70" width="255" height="95" rx="12" fill="#0f172a" fill-opacity="0.7"/>
    <rect x="628" y="70" width="255" height="95" rx="12" fill="none" stroke="#a855f7" stroke-opacity="0.3" stroke-width="1"/>
    <rect x="628" y="70" width="255" height="3" rx="1.5" fill="#a855f7" opacity="0.6"/>
    <text x="648" y="100" fill="#94a3b8" font-family="Arial, sans-serif" font-size="12">Total Payouts</text>
    <text x="648" y="138" fill="white" font-family="Arial, sans-serif" font-size="28" font-weight="bold">891</text>
    <polyline points="816,125 826,130 836,118 846,122 856,108 866,103" fill="none" stroke="#a855f7" stroke-width="2" stroke-linecap="round"/>
  </g>

  <!-- Card 4: Total Volume -->
  <g filter="url(#glowEmerald)">
    <rect x="901" y="70" width="270" height="95" rx="12" fill="url(#gradEmerald)"/>
    <rect x="901" y="70" width="270" height="95" rx="12" fill="#0f172a" fill-opacity="0.7"/>
    <rect x="901" y="70" width="270" height="95" rx="12" fill="none" stroke="#10b981" stroke-opacity="0.3" stroke-width="1"/>
    <rect x="901" y="70" width="270" height="3" rx="1.5" fill="#10b981" opacity="0.6"/>
    <text x="921" y="100" fill="#94a3b8" font-family="Arial, sans-serif" font-size="12">Total Volume</text>
    <text x="921" y="138" fill="white" font-family="Arial, sans-serif" font-size="28" font-weight="bold">$2.4M</text>
    <polyline points="1100,130 1110,118 1120,122 1130,105 1140,110 1150,95" fill="none" stroke="#10b981" stroke-width="2" stroke-linecap="round"/>
  </g>

  <!-- === CHARTS AREA === -->
  <!-- Area Chart Card (left 2/3) -->
  <rect x="82" y="185" width="720" height="240" rx="12" fill="#0f172a"/>
  <rect x="82" y="185" width="720" height="240" rx="12" fill="none" stroke="rgba(255,255,255,0.1)" stroke-width="1"/>
  <text x="102" y="212" fill="white" font-family="Arial, sans-serif" font-size="14" font-weight="bold">Payment Volume</text>
  <text x="710" y="212" fill="#94a3b8" font-family="Arial, sans-serif" font-size="11">Last 30 days</text>

  <!-- Y-axis labels -->
  <text x="100" y="250" fill="#475569" font-family="Arial, sans-serif" font-size="9">$80k</text>
  <text x="100" y="290" fill="#475569" font-family="Arial, sans-serif" font-size="9">$60k</text>
  <text x="100" y="330" fill="#475569" font-family="Arial, sans-serif" font-size="9">$40k</text>
  <text x="100" y="370" fill="#475569" font-family="Arial, sans-serif" font-size="9">$20k</text>
  <text x="100" y="405" fill="#475569" font-family="Arial, sans-serif" font-size="9">$0</text>

  <!-- Grid lines -->
  <line x1="130" y1="247" x2="780" y2="247" stroke="rgba(255,255,255,0.05)" stroke-width="1"/>
  <line x1="130" y1="287" x2="780" y2="287" stroke="rgba(255,255,255,0.05)" stroke-width="1"/>
  <line x1="130" y1="327" x2="780" y2="327" stroke="rgba(255,255,255,0.05)" stroke-width="1"/>
  <line x1="130" y1="367" x2="780" y2="367" stroke="rgba(255,255,255,0.05)" stroke-width="1"/>
  <line x1="130" y1="407" x2="780" y2="407" stroke="rgba(255,255,255,0.05)" stroke-width="1"/>

  <!-- Area chart fill -->
  <path d="M130,407 L130,360 L175,340 L220,355 L265,310 L310,295 L355,305 L400,275 L445,260 L490,280 L535,255 L580,240 L625,250 L670,235 L715,248 L760,230 L780,235 L780,407 Z" fill="url(#chartFill)"/>
  <!-- Area chart line -->
  <polyline points="130,360 175,340 220,355 265,310 310,295 355,305 400,275 445,260 490,280 535,255 580,240 625,250 670,235 715,248 760,230 780,235" fill="none" stroke="#6366f1" stroke-width="2.5" stroke-linecap="round" stroke-linejoin="round"/>
  <!-- Chart dots -->
  <circle cx="265" cy="310" r="3" fill="#6366f1"/>
  <circle cx="445" cy="260" r="3" fill="#6366f1"/>
  <circle cx="670" cy="235" r="3" fill="#6366f1"/>
  <circle cx="780" cy="235" r="3" fill="#6366f1"/>

  <!-- X-axis labels -->
  <text x="175" y="403" fill="#475569" font-family="Arial, sans-serif" font-size="9" text-anchor="middle">Week 1</text>
  <text x="355" y="403" fill="#475569" font-family="Arial, sans-serif" font-size="9" text-anchor="middle">Week 2</text>
  <text x="535" y="403" fill="#475569" font-family="Arial, sans-serif" font-size="9" text-anchor="middle">Week 3</text>
  <text x="715" y="403" fill="#475569" font-family="Arial, sans-serif" font-size="9" text-anchor="middle">Week 4</text>

  <!-- Donut Chart Card (right 1/3) -->
  <rect x="820" y="185" width="351" height="240" rx="12" fill="#0f172a"/>
  <rect x="820" y="185" width="351" height="240" rx="12" fill="none" stroke="rgba(255,255,255,0.1)" stroke-width="1"/>
  <text x="840" y="212" fill="white" font-family="Arial, sans-serif" font-size="14" font-weight="bold">By Category</text>

  <!-- Donut chart -->
  <g transform="translate(955, 310)">
    <!-- Segment 1: Indigo 40% = 144deg, from -90 to 54 -->
    <path d="M0,-55 A55,55 0 0,1 44.5,-32.3 L29.7,-21.5 A36,36 0 0,0 0,-36 Z" fill="url(#donutIndigo)"/>
    <!-- Segment 2: Cyan 25% = 90deg, from 54 to 144 -->
    <path d="M44.5,-32.3 A55,55 0 0,1 32.3,44.5 L21.5,29.7 A36,36 0 0,0 29.7,-21.5 Z" fill="url(#donutCyan)"/>
    <!-- Segment 3: Purple 20% = 72deg, from 144 to 216 -->
    <path d="M32.3,44.5 A55,55 0 0,1 -44.5,32.3 L-29.7,21.5 A36,36 0 0,0 21.5,29.7 Z" fill="url(#donutPurple)"/>
    <!-- Segment 4: Emerald 15% = 54deg, from 216 to 270 -->
    <path d="M-44.5,32.3 A55,55 0 0,1 -55,0 L-36,0 A36,36 0 0,0 -29.7,21.5 Z" fill="url(#donutEmerald)"/>
    <!-- Remaining gap for visual -->
    <path d="M-55,0 A55,55 0 0,1 0,-55 L0,-36 A36,36 0 0,0 -36,0 Z" fill="#334155"/>
    <!-- Center text -->
    <text x="0" y="-4" fill="white" font-family="Arial, sans-serif" font-size="14" font-weight="bold" text-anchor="middle">4,561</text>
    <text x="0" y="12" fill="#94a3b8" font-family="Arial, sans-serif" font-size="9" text-anchor="middle">Total</text>
  </g>

  <!-- Donut legend -->
  <rect x="840" y="380" width="8" height="8" rx="2" fill="#6366f1"/>
  <text x="854" y="388" fill="#94a3b8" font-family="Arial, sans-serif" font-size="10">Crypto 40%</text>
  <rect x="930" y="380" width="8" height="8" rx="2" fill="#06b6d4"/>
  <text x="944" y="388" fill="#94a3b8" font-family="Arial, sans-serif" font-size="10">Fiat 25%</text>
  <rect x="1005" y="380" width="8" height="8" rx="2" fill="#a855f7"/>
  <text x="1019" y="388" fill="#94a3b8" font-family="Arial, sans-serif" font-size="10">P2P 20%</text>
  <rect x="1075" y="380" width="8" height="8" rx="2" fill="#10b981"/>
  <text x="1089" y="388" fill="#94a3b8" font-family="Arial, sans-serif" font-size="10">Other 15%</text>

  <!-- === RECENT ACTIVITY TABLE === -->
  <rect x="82" y="445" width="1089" height="235" rx="12" fill="#0f172a"/>
  <rect x="82" y="445" width="1089" height="235" rx="12" fill="none" stroke="rgba(255,255,255,0.1)" stroke-width="1"/>
  <text x="102" y="474" fill="white" font-family="Arial, sans-serif" font-size="14" font-weight="bold">Recent Activity</text>

  <!-- Table header -->
  <line x1="102" y1="488" x2="1151" y2="488" stroke="rgba(255,255,255,0.1)" stroke-width="1"/>
  <text x="102" y="508" fill="#64748b" font-family="Arial, sans-serif" font-size="11" font-weight="bold">MERCHANT</text>
  <text x="340" y="508" fill="#64748b" font-family="Arial, sans-serif" font-size="11" font-weight="bold">TYPE</text>
  <text x="530" y="508" fill="#64748b" font-family="Arial, sans-serif" font-size="11" font-weight="bold">AMOUNT</text>
  <text x="720" y="508" fill="#64748b" font-family="Arial, sans-serif" font-size="11" font-weight="bold">STATUS</text>
  <text x="920" y="508" fill="#64748b" font-family="Arial, sans-serif" font-size="11" font-weight="bold">DATE</text>
  <line x1="102" y1="518" x2="1151" y2="518" stroke="rgba(255,255,255,0.07)" stroke-width="1"/>

  <!-- Row 1 -->
  <circle cx="115" cy="545" r="12" fill="#1e293b"/>
  <text x="115" y="549" fill="#6366f1" font-family="Arial, sans-serif" font-size="10" text-anchor="middle" font-weight="bold">AC</text>
  <text x="135" y="549" fill="white" font-family="Arial, sans-serif" font-size="12">Acme Corp</text>
  <text x="340" y="549" fill="#94a3b8" font-family="Arial, sans-serif" font-size="12">Payment</text>
  <text x="530" y="549" fill="white" font-family="Arial, sans-serif" font-size="12" font-weight="bold">$12,450.00</text>
  <rect x="720" y="535" width="72" height="22" rx="11" fill="#10b981" fill-opacity="0.15"/>
  <text x="756" y="550" fill="#10b981" font-family="Arial, sans-serif" font-size="11" text-anchor="middle">Completed</text>
  <text x="920" y="549" fill="#64748b" font-family="Arial, sans-serif" font-size="12">Apr 7, 2026</text>
  <line x1="102" y1="565" x2="1151" y2="565" stroke="rgba(255,255,255,0.05)" stroke-width="1"/>

  <!-- Row 2 -->
  <circle cx="115" cy="590" r="12" fill="#1e293b"/>
  <text x="115" y="594" fill="#06b6d4" font-family="Arial, sans-serif" font-size="10" text-anchor="middle" font-weight="bold">GL</text>
  <text x="135" y="594" fill="white" font-family="Arial, sans-serif" font-size="12">Globex Inc</text>
  <text x="340" y="594" fill="#94a3b8" font-family="Arial, sans-serif" font-size="12">Payout</text>
  <text x="530" y="594" fill="white" font-family="Arial, sans-serif" font-size="12" font-weight="bold">$8,200.00</text>
  <rect x="720" y="580" width="72" height="22" rx="11" fill="#eab308" fill-opacity="0.15"/>
  <text x="756" y="595" fill="#eab308" font-family="Arial, sans-serif" font-size="11" text-anchor="middle">Pending</text>
  <text x="920" y="594" fill="#64748b" font-family="Arial, sans-serif" font-size="12">Apr 7, 2026</text>
  <line x1="102" y1="610" x2="1151" y2="610" stroke="rgba(255,255,255,0.05)" stroke-width="1"/>

  <!-- Row 3 -->
  <circle cx="115" cy="635" r="12" fill="#1e293b"/>
  <text x="115" y="639" fill="#a855f7" font-family="Arial, sans-serif" font-size="10" text-anchor="middle" font-weight="bold">WY</text>
  <text x="135" y="639" fill="white" font-family="Arial, sans-serif" font-size="12">Wayne Enterprises</text>
  <text x="340" y="639" fill="#94a3b8" font-family="Arial, sans-serif" font-size="12">Payment</text>
  <text x="530" y="639" fill="white" font-family="Arial, sans-serif" font-size="12" font-weight="bold">$24,800.00</text>
  <rect x="720" y="625" width="72" height="22" rx="11" fill="#10b981" fill-opacity="0.15"/>
  <text x="756" y="640" fill="#10b981" font-family="Arial, sans-serif" font-size="11" text-anchor="middle">Completed</text>
  <text x="920" y="639" fill="#64748b" font-family="Arial, sans-serif" font-size="12">Apr 6, 2026</text>
  <line x1="102" y1="655" x2="1151" y2="655" stroke="rgba(255,255,255,0.05)" stroke-width="1"/>

  <!-- Row 4 -->
  <circle cx="115" cy="672" r="12" fill="#1e293b"/>
  <text x="115" y="676" fill="#10b981" font-family="Arial, sans-serif" font-size="10" text-anchor="middle" font-weight="bold">ST</text>
  <text x="135" y="676" fill="white" font-family="Arial, sans-serif" font-size="12">Stark Industries</text>
  <text x="340" y="676" fill="#94a3b8" font-family="Arial, sans-serif" font-size="12">Payout</text>
  <text x="530" y="676" fill="white" font-family="Arial, sans-serif" font-size="12" font-weight="bold">$5,630.00</text>
  <rect x="720" y="662" width="72" height="22" rx="11" fill="#ef4444" fill-opacity="0.15"/>
  <text x="756" y="677" fill="#ef4444" font-family="Arial, sans-serif" font-size="11" text-anchor="middle">Failed</text>
  <text x="920" y="676" fill="#64748b" font-family="Arial, sans-serif" font-size="12">Apr 5, 2026</text>
</svg>