<svg xmlns="http://www.w3.org/2000/svg" width="800" height="550" viewBox="0 0 800 550">
  <defs>
    <!-- Gradient for top-left blur circle -->
    <radialGradient id="glow1" cx="0.3" cy="0.3" r="0.5">
      <stop offset="0%" stop-color="#6366f1" stop-opacity="0.4"/>
      <stop offset="50%" stop-color="#7c3aed" stop-opacity="0.2"/>
      <stop offset="100%" stop-color="#6366f1" stop-opacity="0"/>
    </radialGradient>
    <!-- Gradient for bottom-right blur circle -->
    <radialGradient id="glow2" cx="0.7" cy="0.7" r="0.5">
      <stop offset="0%" stop-color="#06b6d4" stop-opacity="0.35"/>
      <stop offset="50%" stop-color="#22d3ee" stop-opacity="0.15"/>
      <stop offset="100%" stop-color="#06b6d4" stop-opacity="0"/>
    </radialGradient>
    <!-- Button gradient -->
    <linearGradient id="btnGrad" x1="0" y1="0" x2="1" y2="0">
      <stop offset="0%" stop-color="#6366f1"/>
      <stop offset="100%" stop-color="#818cf8"/>
    </linearGradient>
    <!-- Logo gradient -->
    <linearGradient id="logoGrad" x1="0" y1="0" x2="1" y2="1">
      <stop offset="0%" stop-color="#818cf8"/>
      <stop offset="100%" stop-color="#06b6d4"/>
    </linearGradient>
    <!-- Card border glow -->
    <linearGradient id="cardBorder" x1="0" y1="0" x2="1" y2="1">
      <stop offset="0%" stop-color="#6366f1" stop-opacity="0.4"/>
      <stop offset="50%" stop-color="#818cf8" stop-opacity="0.15"/>
      <stop offset="100%" stop-color="#06b6d4" stop-opacity="0.3"/>
    </linearGradient>
    <!-- Card glow shadow -->
    <filter id="cardGlow" x="-20%" y="-20%" width="140%" height="140%">
      <feGaussianBlur in="SourceGraphic" stdDeviation="18"/>
    </filter>
  </defs>

  <!-- Full dark background -->
  <rect width="800" height="550" fill="#020617"/>

  <!-- Blurred gradient circle top-left -->
  <ellipse cx="180" cy="100" rx="280" ry="250" fill="url(#glow1)"/>

  <!-- Blurred gradient circle bottom-right -->
  <ellipse cx="650" cy="460" rx="300" ry="260" fill="url(#glow2)"/>

  <!-- Card outer glow -->
  <rect x="210" y="60" width="380" height="430" rx="16" ry="16" fill="#818cf8" opacity="0.07" filter="url(#cardGlow)"/>

  <!-- Card background (glassmorphism simulated) -->
  <rect x="210" y="60" width="380" height="430" rx="16" ry="16" fill="#0f172a" fill-opacity="0.75" stroke="url(#cardBorder)" stroke-width="1"/>

  <!-- Cute Octopus Logo -->
  <g transform="translate(400, 130)">
    <!-- Body -->
    <ellipse cx="0" cy="-4" rx="28" ry="30" fill="url(#logoGrad)" opacity="0.95"/>
    <!-- Body shine -->
    <ellipse cx="-6" cy="-14" rx="12" ry="10" fill="#fff" opacity="0.15"/>
    <!-- Eyes white -->
    <ellipse cx="-10" cy="-6" rx="8" ry="9" fill="#fff"/>
    <ellipse cx="10" cy="-6" rx="8" ry="9" fill="#fff"/>
    <!-- Pupils -->
    <ellipse cx="-8" cy="-7" rx="5" ry="6" fill="#1e1b4b"/>
    <ellipse cx="12" cy="-7" rx="5" ry="6" fill="#1e1b4b"/>
    <!-- Eye sparkle -->
    <circle cx="-5" cy="-10" r="2.5" fill="#fff"/>
    <circle cx="15" cy="-10" r="2.5" fill="#fff"/>
    <!-- Blush -->
    <ellipse cx="-18" cy="5" rx="5" ry="3" fill="#f472b6" opacity="0.35"/>
    <ellipse cx="18" cy="5" rx="5" ry="3" fill="#f472b6" opacity="0.35"/>
    <!-- Smile -->
    <path d="M-5 8 Q0 13 5 8" fill="none" stroke="#4338ca" stroke-width="1.2" stroke-linecap="round"/>
    <!-- Tentacles -->
    <g fill="none" stroke-width="4" stroke-linecap="round" opacity="0.8">
      <path d="M-22 22 Q-28 34 -24 38" stroke="#818cf8"/>
      <path d="M-12 26 Q-14 36 -10 40" stroke="#a5b4fc"/>
      <path d="M0 27 Q0 37 0 41" stroke="#a5b4fc"/>
      <path d="M12 26 Q14 36 10 40" stroke="#a5b4fc"/>
      <path d="M22 22 Q28 34 24 38" stroke="#818cf8"/>
    </g>
    <!-- Star crown -->
    <polygon points="0,-38 2,-32 7,-32 3,-28 5,-22 0,-26 -5,-22 -3,-28 -7,-32 -2,-32" fill="#fbbf24" opacity="0.85" transform="scale(0.7)"/>
  </g>

  <!-- Title: OctopusWallet -->
  <text x="400" y="192" text-anchor="middle" font-family="'Segoe UI', Arial, sans-serif" font-size="22" font-weight="700" fill="#ffffff" letter-spacing="0.5">OctopusWallet</text>

  <!-- Subtitle: Admin Panel -->
  <text x="400" y="214" text-anchor="middle" font-family="'Segoe UI', Arial, sans-serif" font-size="13" fill="#94a3b8" letter-spacing="1">Admin Panel</text>

  <!-- Username label -->
  <text x="250" y="255" font-family="'Segoe UI', Arial, sans-serif" font-size="12" fill="#94a3b8">Username</text>

  <!-- Username input field -->
  <rect x="250" y="262" width="300" height="42" rx="8" ry="8" fill="#1e293b" stroke="#334155" stroke-width="1"/>
  <!-- Placeholder text -->
  <text x="266" y="288" font-family="'Segoe UI', Arial, sans-serif" font-size="13" fill="#475569">Enter your username</text>
  <!-- User icon -->
  <circle cx="534" cy="283" r="5" fill="none" stroke="#475569" stroke-width="1.2"/>
  <path d="M528 293 Q531 289 534 289 Q537 289 540 293" fill="none" stroke="#475569" stroke-width="1.2"/>

  <!-- Password label -->
  <text x="250" y="325" font-family="'Segoe UI', Arial, sans-serif" font-size="12" fill="#94a3b8">Password</text>

  <!-- Password input field -->
  <rect x="250" y="332" width="300" height="42" rx="8" ry="8" fill="#1e293b" stroke="#334155" stroke-width="1"/>
  <!-- Placeholder dots -->
  <text x="266" y="358" font-family="'Segoe UI', Arial, sans-serif" font-size="13" fill="#475569">Enter your password</text>
  <!-- Lock icon -->
  <rect x="530" y="351" rx="2" ry="2" width="10" height="8" fill="none" stroke="#475569" stroke-width="1.2"/>
  <path d="M532 351 L532 347 Q532 343 535 343 Q538 343 538 347 L538 351" fill="none" stroke="#475569" stroke-width="1.2"/>

  <!-- Sign In button -->
  <rect x="250" y="400" width="300" height="44" rx="8" ry="8" fill="url(#btnGrad)"/>
  <text x="400" y="427" text-anchor="middle" font-family="'Segoe UI', Arial, sans-serif" font-size="15" font-weight="600" fill="#ffffff">Sign In</text>

  <!-- Footer text -->
  <text x="400" y="470" text-anchor="middle" font-family="'Segoe UI', Arial, sans-serif" font-size="11" fill="#475569">Secured with end-to-end encryption</text>
</svg>